<svg width="30" height="28" viewBox="0 0 30 28" fill="none" xmlns="http://www.w3.org/2000/svg">
<path d="M0 13.0625C0 19.7949 6.71484 25.25 15 25.25C17.1738 25.25 19.2363 24.875 21.0996 24.2012C21.7969 24.7109 22.9336 25.4082 24.2813 25.9941C25.6875 26.6035 27.3809 27.125 29.0625 27.125C29.4434 27.125 29.7832 26.8965 29.9297 26.5449C30.0762 26.1934 29.9941 25.7949 29.7305 25.5254L29.7129 25.5078C29.6953 25.4902 29.6719 25.4668 29.6367 25.4258C29.5723 25.3555 29.4727 25.2441 29.3496 25.0918C29.1094 24.7988 28.7871 24.3652 28.459 23.8262C27.873 22.8535 27.3164 21.5762 27.2051 20.1406C28.9629 18.1484 30 15.7051 30 13.0625C30 6.33008 23.2852 0.875 15 0.875C6.71484 0.875 0 6.33008 0 13.0625Z" fill="white"/>
</svg>
